<svg width="86" height="67" viewBox="0 0 86 67" fill="none" xmlns="http://www.w3.org/2000/svg">
<path fill-rule="evenodd" clip-rule="evenodd" d="M0 65.8485L8.89469 48.2792C9.33589 47.622 9.63944 46.0669 7.324 45.1038L4.69442 43.4289C4.23557 43.6092 3.20844 43.209 2.77077 40.1663C2.04131 38.2645 1.18596 31.5578 3.60023 19.945C3.7826 18.9156 4.49676 16.3125 5.8945 14.1351L4.50029 12.5997L5.50624 10.6457L7.324 11.7623L8.38289 10.3142C8.48878 10.099 8.82057 9.70701 9.3006 9.86054C9.61529 9.96119 9.64359 9.89868 9.6808 9.81647C9.71454 9.74192 9.75561 9.65118 10.0242 9.65118C10.1124 9.76749 10.356 9.93033 10.6242 9.65118C10.7595 9.41273 11.1219 8.98469 11.489 9.1801C11.6831 9.30805 12.1843 9.543 12.6361 9.45926C13.0879 9.37551 13.6715 9.9943 13.9068 10.3142C13.9597 10.163 14.1115 9.86054 14.295 9.86054L14.3147 9.86046C14.5543 9.85901 15.075 9.85585 15.1951 11.5355L15.9716 11.7623C16.0716 11.5238 16.3105 11.0504 16.4658 11.0644C16.5298 11.0702 16.5766 11.0265 16.634 10.973C16.7505 10.8643 16.9107 10.7148 17.3482 10.855C17.6011 10.7678 18.1318 10.6875 18.2306 11.0644C18.3718 11.2214 18.8553 11.5355 19.6601 11.5355C19.8483 11.4192 20.2813 11.4168 20.5072 12.338C20.7484 12.4195 21.312 12.4776 21.6367 12.0589C21.6955 11.7681 21.9332 11.3017 22.4132 11.7623C22.6132 11.8611 23.0062 12.2264 22.9779 12.8963V13.664L23.3839 13.9257C23.6133 13.7862 24.1251 13.5907 24.3369 13.9257C24.5428 13.6815 24.9581 13.2872 24.9722 13.664C25.1016 13.9897 25.4063 14.676 25.5899 14.8155C25.5428 15.2459 25.4205 16.1729 25.3075 16.4381L31.1844 18.7935L32.155 16.4381C31.6373 15.746 30.9126 13.9571 32.155 12.338L36.32 7.22602C36.6259 6.76658 37.4283 5.85816 38.1907 5.90004L37.6436 5.01023C36.6024 4.98115 34.2834 4.56009 33.3374 3.10849C33.1374 3.09686 32.7374 3.14339 32.7374 3.42254C32.6903 3.84709 32.4127 4.62639 31.6785 4.34724C31.1373 4.16695 29.9772 3.69123 29.6666 3.23062C29.3725 3.0387 28.996 2.45248 29.8431 1.64293L30.1784 1.03228C30.2843 0.846177 30.5843 0.529801 30.9373 0.753125C31.1961 0.886887 31.6361 1.29748 31.3255 1.86975C31.1902 2.07911 31.0432 2.57112 31.5373 2.86423L32.155 3.42254C32.2491 3.02707 32.4974 2.25358 32.7374 2.32337C32.9256 2.2594 33.3374 2.16984 33.4786 2.32337C33.6139 1.84067 34.1104 0.906659 35.014 1.03228C35.8964 1.0032 37.7954 1.40216 38.3319 3.23062C38.5554 3.27133 39.0696 3.32833 39.3378 3.23062C39.5849 2.85842 39.9837 1.94651 39.6025 1.27654C39.7143 1.10207 40.1496 0.781044 40.9967 0.892704C41.2144 1.42193 41.7027 2.51878 41.9145 2.67231C42.2204 2.61997 42.7404 2.26754 42.3733 1.27654C42.2204 0.85781 42.0062 0.0238355 42.3733 0.0377933C42.8027 -0.0785211 43.7146 0.00638828 43.9263 1.27654C43.9969 1.89301 43.9864 3.21667 43.3793 3.57957C43.0086 3.69588 42.1721 3.85873 41.7909 3.57957C41.438 3.63191 40.6332 3.67378 40.2379 3.42254C40.0085 3.68425 39.5072 4.19371 39.3378 4.13788C39.7849 4.57406 40.8767 5.49178 41.6674 5.67323C43.8675 5.14981 48.589 5.17424 49.8738 9.45926C50.7856 8.71485 53.6399 7.22602 57.7625 7.22602C57.9978 6.78403 58.6344 5.90004 59.2979 5.90004C58.992 5.63833 58.3943 5.01721 58.4508 4.6264C57.9861 4.97534 56.8095 5.67323 55.8212 5.67323C55.4742 5.58017 54.78 5.3173 54.78 5.01023C54.7329 4.92881 54.8753 4.68223 55.8212 4.34724C56.1154 4.14951 56.9507 3.75753 57.939 3.77149C58.2743 3.74241 58.7085 3.49233 57.7625 2.72466C56.8036 2.74792 54.6106 3.10501 53.5093 4.34724C53.1975 4.46937 52.5775 4.5252 52.5916 3.77149C52.7151 3.20736 53.534 2.02328 55.8212 1.79996C56.6683 1.71854 58.4155 1.64293 58.6273 1.99188C58.7214 2.11982 58.8532 2.51529 58.6273 3.0736C58.945 3.14921 59.5028 3.50978 59.192 4.34724L60.5509 5.90004C61.2922 6.00472 62.5523 6.80729 61.6628 9.18011C61.4334 9.18592 60.9321 9.30922 60.7627 9.75586C60.6215 10.0874 60.265 10.8062 59.9686 11.0295C60.698 11.1342 62.3334 11.1272 63.0393 10.2618C63.4217 9.98268 64.1441 9.7454 63.9747 11.0295C63.71 11.3087 63.1523 11.8844 63.0393 11.9542C63.1276 12.4776 63.1699 13.5873 62.6334 13.8385C62.1452 14.391 60.8368 15.4087 59.5097 15.0598C59.045 15.1238 58.0943 15.0982 58.0096 14.484C58.0155 14.17 58.2567 13.6222 59.1744 13.9432C59.8862 13.8676 61.3451 13.5245 61.4863 12.7568C61.2922 12.8789 60.8439 13.1197 60.6039 13.1057C60.4451 13.0069 60.138 12.7463 60.1803 12.4951C59.8921 12.7684 59.2873 13.1092 59.1744 12.2857C58.9097 12.4718 58.4473 12.5998 58.7155 11.6227C58.7626 11.3319 58.8885 10.7538 59.0156 10.7678C59.2626 10.7445 59.7568 10.6771 59.7568 10.5933C59.5685 10.1223 58.9061 9.18011 57.7625 9.18011C56.5978 9.18592 53.887 9.41041 52.3622 10.2618C51.7798 10.5003 50.5621 11.026 50.3503 11.2214C50.4915 12.0996 50.7633 14.0479 50.7209 14.8155C50.8444 15.6239 50.6221 17.1604 48.7443 16.8394C48.8855 17.8804 48.7655 20.0113 47.156 20.2067C46.9971 20.9395 46.203 22.2271 44.297 21.5152V23.0332C47.4442 22.7714 53.947 23.1867 54.78 26.9413C55.1682 27.6334 56.4989 28.4453 58.7155 26.1562C59.3097 24.9407 61.1439 23.1134 63.7276 25.5281C64.2924 26.0457 65.4218 27.1646 65.4218 27.4996L69.3927 30.7797C69.8339 31.0298 70.7657 32.1441 70.9634 34.6006C71.0163 35.0833 71.2599 36.0976 71.8105 36.293C72.0635 36.5431 72.8164 36.799 73.8047 35.8219C74.7872 35.2927 77.2285 34.8972 79.1345 37.5492C79.3169 37.9621 80.0734 38.4913 81.6405 37.3049C82.0994 37.3863 83.0912 37.5492 83.3877 37.5492C83.4721 37.5492 83.5822 37.5166 83.7104 37.4786C84.145 37.3499 84.7879 37.1596 85.3467 37.9679C85.8938 38.6542 86.6067 39.9604 85.0819 39.6952C84.5701 39.2881 83.5642 38.7182 83.6348 39.6952L84.0583 41.0037C83.876 41.7365 83.2818 42.7624 82.3641 41.0037C82.3053 40.2477 82.0782 38.8019 81.6405 39.0671C81.2346 39.1253 80.4687 39.3323 80.6522 39.6952C81.3111 40.9107 82.4312 43.9907 81.6405 46.5868C80.664 47.4301 78.4039 48.4781 77.1755 45.9238C77.0415 45.1893 76.8183 43.7574 76.9412 43.6149C76.5033 43.8357 75.6226 44.1545 75.4284 43.7429C75.346 43.1265 75.2801 41.6493 75.6754 40.6722C75.9755 40.1139 76.6955 39.1648 77.1755 39.8348C77.2697 40.0907 77.3591 40.7874 76.9638 41.5271L76.8402 42.3821C77.1344 42.1727 77.7297 41.7784 77.7579 41.8761C77.7668 41.9067 77.7679 41.8704 77.7701 41.7957C77.7767 41.5728 77.7935 41.0079 78.058 40.8642L78.6933 40.5327C78.5227 39.0438 77.5144 36.2407 74.846 36.9385C73.793 37.7178 71.4152 38.931 70.328 37.5492C69.8927 36.9269 68.948 35.0822 68.6515 32.6814C68.4044 32.1289 67.6349 30.9507 66.5337 30.6576C66.6808 31.6288 66.8302 33.6864 66.2513 34.147C65.616 34.8391 64.0947 35.944 63.0923 34.8274C62.7158 34.5134 62.0405 33.17 62.3511 30.3086C62.3511 29.9655 62.5911 29.1013 63.5511 28.3894C63.257 27.5345 62.3758 25.891 61.2039 26.1562C60.9157 26.0922 60.1309 26.2713 59.2979 27.4996C58.4685 28.4418 56.2483 30.0434 54.0035 28.9128C53.3505 27.1623 50.9927 23.8322 46.7854 24.5162C46.0147 24.4871 44.4558 24.4673 44.3852 24.6208C44.3146 24.7744 44.3558 25.2664 44.3852 25.4932C45.9147 26.6563 48.2502 30.4447 45.3559 36.293L39.7967 56.2177C39.4849 56.9214 39.0484 58.6672 39.7967 60.0211L42.0556 64.0863H82.3641V67H0V65.8485ZM29.8431 5.34173C28.3748 4.35073 28.6901 3.1492 29.0313 2.67231C28.6642 2.22567 28.2783 2.25358 28.1312 2.32337C27.6935 2.32337 27.49 2.556 27.4429 2.67231C27.4147 3.98434 28.0547 5.2196 28.3783 5.67323C29.4372 7.09692 31.902 7.48773 33.0021 7.50518C34.654 6.89104 33.9139 6.35367 33.3374 6.16175C31.9962 6.55256 30.449 5.77791 29.8431 5.34173ZM9.00061 20.1718C8.93002 18.8876 10.3948 18.113 11.136 17.8862C11.3761 17.8001 11.9655 18.1295 12.2302 18.3049C11.6655 18.6399 10.2183 21.3175 9.56535 22.6144L9.00061 20.1718ZM44.0675 10.7851C44.7617 10.4187 46.3794 9.84647 47.2971 10.4885C47.8442 10.7619 48.8431 11.5109 48.4619 12.3205C48.2737 12.4368 47.7313 12.5264 47.0677 11.9541L46.6441 12.4601C47.0206 12.8846 47.6783 13.8872 47.2971 14.5014C46.85 14.7631 45.8959 15.3179 45.6558 15.4435C45.3852 15.3737 44.844 14.9864 44.844 13.9954L45.6558 13.0707C45.5617 12.8381 45.4299 12.3309 45.6558 12.1635V11.7447C45.4323 11.7447 45.017 11.7866 45.144 11.9541C44.797 12.1286 44.1416 12.4461 44.2969 12.3205C44.3549 12.2736 44.2886 12.2174 44.1877 12.1319C43.9506 11.931 43.5228 11.5684 44.0675 10.7851ZM22.413 18.3574C24.3614 17.492 27.0369 19.0088 28.1311 19.8753C29.8394 20.3359 29.8665 20.6721 29.6665 20.7826C27.9158 20.5453 26.1956 20.8814 25.5544 21.0792C22.7166 21.1908 20.7365 23.1147 20.1011 24.0626C18.7034 25.5142 15.7067 27.5172 14.3831 28.3372C14.0443 27.751 13.7125 26.5576 13.5889 26.0342C13.2783 23.8149 14.9184 22.0039 15.7773 21.3758C18.1916 19.7846 21.2071 18.7005 22.413 18.3574ZM15.0524 42.784L15.0827 43.1018C15.0827 43.2835 15.0323 43.677 14.9314 44.2824C14.7194 45.2108 14.3259 46.6487 13.7507 48.5962C13.1756 50.5336 12.7265 51.9715 12.4036 52.9099L12.3582 53.0764C12.3582 53.3186 12.6206 53.4397 13.1453 53.4397C13.6801 53.4397 14.1241 53.3842 14.4773 53.2732C14.8304 53.1723 15.0726 53.0563 15.2038 52.9251C15.335 52.7939 15.4762 52.5971 15.6276 52.3348C16.0615 51.5881 17.3228 50.0291 19.4116 47.6578C21.5105 45.2864 23.0443 43.6316 24.013 42.6931C24.1038 42.6023 24.1492 42.5216 24.1492 42.451C24.1492 42.2794 23.8868 42.1937 23.3621 42.1937H23.0594C22.4237 42.2138 21.9797 42.2845 21.7274 42.4056C21.5861 42.4762 21.46 42.6225 21.349 42.8445C20.9151 43.7022 20.0423 45.009 18.7305 46.7647C17.4288 48.5104 16.5761 49.5851 16.1725 49.9887C16.1422 50.019 16.0968 50.0694 16.0363 50.1401L15.9152 50.2611L15.7638 50.4125C15.6831 50.4932 15.562 50.5336 15.4006 50.5336C15.1988 50.5336 15.0978 50.4226 15.0978 50.2006C15.0978 49.9786 15.4712 48.7475 16.2179 46.5074C16.9646 44.2572 17.338 43.0362 17.338 42.8445C17.338 42.5418 17.0504 42.3904 16.4752 42.3904C15.5267 42.3904 15.0524 42.5216 15.0524 42.784ZM25.0107 54.0451C25.2126 54.0451 25.3236 54.0048 25.3437 53.9241C25.6061 52.804 26.5546 50.4428 28.1893 46.8404C28.492 46.1744 28.8048 45.5185 29.1277 44.8727L29.8089 43.5105C29.94 43.2481 30.0056 43.0867 30.0056 43.0261C30.0056 42.6931 29.6575 42.5266 28.9612 42.5266L28.6131 42.5418C27.4224 42.5418 25.2933 44.3127 22.2257 47.8545L22.0138 48.0967C21.1864 48.1169 20.697 48.1572 20.5456 48.2178C20.4044 48.2783 20.2126 48.4196 19.9705 48.6416C19.7283 48.8636 19.6072 49.0402 19.6072 49.1714C19.6173 49.3025 19.6627 49.3681 19.7434 49.3681C19.7535 49.3681 19.8191 49.3631 19.9402 49.353C20.0714 49.3328 20.253 49.3126 20.4851 49.2924C20.7172 49.2723 20.9089 49.2521 21.0603 49.2319C20.1925 50.2813 19.4407 51.2399 18.805 52.1077C18.1794 52.9654 17.8666 53.4498 17.8666 53.5608C17.8666 53.7222 18.1491 53.803 18.7142 53.803C19.2792 53.803 19.6173 53.6768 19.7283 53.4246C20.3741 52.022 21.0502 50.8464 21.7565 49.8979L22.3317 49.1411C22.7555 49.1209 23.0683 49.1108 23.2701 49.1108C24.6424 49.1108 25.3286 49.2874 25.3286 49.6406C25.3286 49.9029 25.0814 50.468 24.5869 51.3358C24.0925 52.2036 23.8453 52.7939 23.8453 53.1067C23.8453 53.2783 23.9916 53.475 24.2842 53.697C24.5768 53.9291 24.819 54.0451 25.0107 54.0451ZM25.4497 45.7052C26.1459 45.0594 26.6454 44.7365 26.9482 44.7365C27.1197 44.7365 27.2055 44.8223 27.2055 44.9938C27.2055 45.1654 27.1046 45.4933 26.9027 45.9777C26.711 46.462 26.4184 46.9413 26.0249 47.4156C25.6313 47.8898 25.2327 48.127 24.8291 48.127C24.3145 48.1169 23.7646 48.1068 23.1793 48.0967C23.9966 47.1381 24.7534 46.3409 25.4497 45.7052ZM30.1419 40.8466C30.3336 40.8466 30.4294 40.9273 30.4294 41.0887C30.4294 41.2098 30.3689 41.3259 30.2478 41.4369C30.1267 41.5479 29.9653 41.6034 29.7635 41.6034C29.5616 41.6034 29.4607 41.5176 29.4607 41.346C29.4607 41.225 29.5263 41.114 29.6575 41.0131C29.7887 40.9021 29.9501 40.8466 30.1419 40.8466ZM29.2942 40.6952C28.9915 40.9172 28.8402 41.1896 28.8402 41.5125C28.8402 41.6841 28.9108 41.8254 29.0521 41.9363C29.2034 42.0373 29.4305 42.0877 29.7332 42.0877C30.0359 42.0877 30.3336 41.9666 30.6262 41.7244C30.9188 41.4722 31.0651 41.235 31.0651 41.0131C31.0651 40.781 30.9895 40.6145 30.8381 40.5136C30.6867 40.4026 30.4698 40.3471 30.1873 40.3471C29.9047 40.3471 29.607 40.4631 29.2942 40.6952ZM34.215 53.1824L34.1847 52.7283C34.1847 52.2036 34.3512 51.5124 34.6842 50.6547C35.0172 49.7869 35.1837 49.2622 35.1837 49.0805C35.1837 48.8989 35.108 48.7274 34.9566 48.5659C34.8053 48.4045 34.6539 48.2682 34.5026 48.1572C34.3613 48.0362 34.2907 47.9352 34.2907 47.8545C34.2907 47.7233 34.3865 47.6275 34.5782 47.5669C34.77 47.5064 35.0575 47.4307 35.441 47.3399C35.8244 47.2491 36.2079 47.1028 36.5913 46.901C36.9849 46.6891 37.3532 46.3661 37.6963 45.9323C38.0393 45.4984 38.2109 45.0695 38.2109 44.6457C38.2109 44.2219 38.1302 43.8738 37.9687 43.6013C37.8173 43.3289 37.6307 43.122 37.4087 42.9807C36.884 42.6477 35.7992 42.4812 34.1544 42.4812C32.6206 42.4812 31.8538 42.6175 31.8538 42.8899V43.0413C31.8538 43.4247 31.7276 43.8939 31.4754 44.4489C31.2332 45.0039 30.6883 46.0079 29.8407 47.461C29.0031 48.904 28.2363 50.2157 27.54 51.3963C26.8437 52.577 26.4956 53.2228 26.4956 53.3338V53.364C26.4956 53.5053 26.6722 53.5759 27.0254 53.5759C27.3886 53.5759 27.7569 53.5154 28.1303 53.3943C28.5137 53.2732 28.7509 53.0865 28.8417 52.8343C29.0031 52.2894 29.7398 50.8313 31.0515 48.46C32.3734 46.0786 33.332 44.5145 33.9274 43.7678C34.1696 43.4853 34.5227 43.344 34.9869 43.344C35.4511 43.344 35.8143 43.4298 36.0767 43.6013C36.3491 43.7729 36.4854 44.0756 36.4854 44.5095C36.4854 45.1149 36.1221 45.6901 35.3956 46.235C34.6691 46.7799 33.8467 47.0523 32.9284 47.0523C32.7064 47.0523 32.5197 47.1532 32.3684 47.355C32.2271 47.5468 32.1565 47.7385 32.1565 47.9302C32.1565 48.021 32.217 48.0664 32.3381 48.0664L32.5803 48.0513C33.2362 48.0513 33.5641 48.3187 33.5641 48.8535C33.5641 49.1159 33.3371 49.7818 32.883 50.8515C32.439 51.9211 32.217 52.6173 32.217 52.9402C32.217 53.2631 32.6408 53.4246 33.4884 53.4246C33.9728 53.4246 34.215 53.3438 34.215 53.1824Z" fill="white"/>
<path d="M55.0768 51.2442C55.2181 51.2442 55.2887 51.3451 55.2887 51.5469C55.2887 51.7386 55.0919 52.1927 54.6984 52.9091C54.3049 53.6256 53.9769 54.1654 53.7146 54.5287C53.5531 54.7709 53.3614 54.8919 53.1394 54.8919C52.9275 54.8919 52.8215 54.8213 52.8215 54.68L52.8367 54.5438C52.9678 54.0494 53.0334 53.6306 53.0334 53.2875C53.0334 52.7628 52.8922 52.5005 52.6096 52.5005C52.4885 52.5005 52.3675 52.5459 52.2464 52.6367C52.1253 52.7174 52.0345 52.8032 51.9739 52.894L51.8831 53.0302C51.7418 53.2623 50.8892 54.7053 49.3251 57.3591C48.9719 57.9645 48.6087 58.6558 48.2353 59.4327C47.862 60.1996 47.5592 60.8051 47.3272 61.2491C47.0951 61.683 46.863 61.9907 46.6309 62.1724C46.3988 62.3641 46.0204 62.4599 45.4957 62.4599C44.9811 62.4599 44.7238 62.3742 44.7238 62.2026V62.1572C44.7238 62.0563 44.9912 61.5821 45.526 60.7344C47.4937 57.6366 48.982 55.1038 49.9911 53.1362C50.0819 52.9545 50.1273 52.8234 50.1273 52.7426C50.1273 52.6114 50.0416 52.5459 49.87 52.5459C49.315 52.5459 48.4674 53.1715 47.3272 54.4227C47.2162 54.6245 46.9589 54.7254 46.5552 54.7254C46.4644 54.7254 46.419 54.68 46.419 54.5892C46.419 54.5186 46.4846 54.3723 46.6158 54.1503L46.9185 53.6054C47.8065 52.0514 48.3867 51.2744 48.6591 51.2744C49.1838 51.2744 49.5774 51.3753 49.8397 51.5772C50.5461 51.557 51.1969 51.5469 51.7923 51.5469C52.3876 51.5469 52.9779 51.557 53.5632 51.5772C54.0677 51.3552 54.5723 51.2442 55.0768 51.2442ZM63.1061 53.8778C63.1061 54.4429 62.99 55.0887 62.758 55.8152C62.536 56.5418 62.203 57.2834 61.759 58.0402C61.315 58.797 60.8004 59.4983 60.2151 60.1441C59.6399 60.7798 58.9538 61.3046 58.1566 61.7183C57.3695 62.1219 56.5522 62.3237 55.7046 62.3237C54.8671 62.3237 54.2061 62.0916 53.7218 61.6275C53.2374 61.1532 52.9952 60.5024 52.9952 59.6749C52.9952 59.1098 53.1062 58.464 53.3282 57.7375C53.5603 57.011 53.8984 56.2693 54.3423 55.5125C54.7863 54.7557 55.2959 54.0595 55.8711 53.4237C56.4563 52.788 57.1425 52.2684 57.9296 51.8647C58.7267 51.451 59.5441 51.2442 60.3816 51.2442C61.2292 51.2442 61.8952 51.4762 62.3796 51.9404C62.8639 52.4046 63.1061 53.0504 63.1061 53.8778ZM61.32 53.7416C61.32 52.6316 60.9164 52.0766 60.1092 52.0766C59.4331 52.0766 58.6763 52.5055 57.8388 53.3632C57.0113 54.2209 56.305 55.2602 55.7197 56.4812C55.1446 57.6921 54.857 58.7768 54.857 59.7355C54.857 60.8454 55.2606 61.4004 56.0678 61.4004C56.7338 61.4004 57.4856 60.9716 58.3231 60.1139C59.1606 59.2562 59.867 58.2219 60.4422 57.011C61.0274 55.79 61.32 54.7002 61.32 53.7416ZM64.9461 62.4145C64.2195 62.4145 63.6141 62.243 63.1297 61.8999C62.6555 61.5568 62.4183 61.0725 62.4183 60.4469C62.4183 60.0432 62.6151 59.4479 63.0087 58.6608C63.4123 57.8636 63.9572 56.8899 64.6433 55.7396C65.3396 54.5892 65.834 53.7214 66.1267 53.1362C66.4294 52.5408 66.5807 52.0565 66.5807 51.6831C66.5807 51.5822 66.611 51.5015 66.6716 51.4409C66.8128 51.2997 67.2972 51.229 68.1246 51.229C68.6695 51.229 68.942 51.335 68.942 51.5469C68.942 51.6478 68.9066 51.7336 68.836 51.8042C68.281 52.5812 67.4284 53.9636 66.278 55.9515C65.1277 57.9393 64.5525 59.2057 64.5525 59.7506C64.5525 60.5478 64.9158 60.9463 65.6423 60.9463C66.2982 60.9463 66.8078 60.7748 67.1711 60.4317C67.4435 60.1593 67.6705 59.8767 67.8522 59.5841C68.2558 58.9686 68.7805 58.0049 69.4263 56.6931C70.0721 55.3712 70.6473 54.2007 71.1518 53.1816C71.6664 52.1523 72.0247 51.557 72.2265 51.3955C72.4384 51.224 72.8016 51.1382 73.3163 51.1382C73.841 51.1382 74.1033 51.1988 74.1033 51.3198C74.1033 51.4006 74.0125 51.5469 73.8309 51.7588C73.6594 51.9707 73.402 52.339 73.059 52.8637C72.7159 53.3884 72.3173 54.0141 71.8632 54.7406C71.4192 55.4671 71.0307 56.1079 70.6977 56.6629C70.3647 57.2178 69.9712 57.8788 69.5171 58.6457C69.0731 59.4025 68.8108 59.8465 68.7301 59.9776C67.7815 61.6022 66.5202 62.4145 64.9461 62.4145ZM77.3262 61.5821L77.3565 62.0361C77.3565 62.1976 77.1143 62.2783 76.63 62.2783C75.7824 62.2783 75.3586 62.1169 75.3586 61.794C75.3586 61.4711 75.5806 60.7748 76.0245 59.7052C76.4786 58.6356 76.7057 57.9696 76.7057 57.7072C76.7057 57.1724 76.3777 56.905 75.7218 56.905L75.4797 56.9202C75.3586 56.9202 75.298 56.8748 75.298 56.7839C75.298 56.5922 75.3687 56.4005 75.5099 56.2088C75.6613 56.007 75.848 55.9061 76.07 55.9061C76.9882 55.9061 77.8106 55.6336 78.5371 55.0887C79.2637 54.5438 79.6269 53.9686 79.6269 53.3632C79.6269 52.9293 79.4907 52.6266 79.2182 52.455C78.9559 52.2835 78.5926 52.1977 78.1285 52.1977C77.6643 52.1977 77.3111 52.339 77.0689 52.6215C76.4736 53.3682 75.515 54.9323 74.1931 57.3137C72.8813 59.685 72.1447 61.1431 71.9832 61.688C71.8924 61.9403 71.6553 62.1269 71.2718 62.248C70.8985 62.3691 70.5302 62.4297 70.1669 62.4297C69.8137 62.4297 69.6372 62.359 69.6372 62.2178V62.1875C69.6372 62.0765 69.9853 61.4307 70.6815 60.2501C71.3778 59.0695 72.1447 57.7577 72.9822 56.3147C73.8298 54.8617 74.3747 53.8576 74.6169 53.3027C74.8692 52.7477 74.9953 52.2785 74.9953 51.895V51.7437C74.9953 51.4712 75.7622 51.335 77.296 51.335C78.9408 51.335 80.0255 51.5015 80.5502 51.8345C80.7722 51.9757 80.9589 52.1826 81.1102 52.455C81.2717 52.7275 81.3524 53.0756 81.3524 53.4994C81.3524 53.9232 81.1809 54.3521 80.8378 54.786C80.4947 55.2199 80.1264 55.5428 79.7329 55.7547C79.3494 55.9565 78.966 56.1028 78.5825 56.1936C78.1991 56.2845 77.9115 56.3601 77.7198 56.4207C77.5281 56.4812 77.4322 56.5771 77.4322 56.7083C77.4322 56.789 77.5028 56.8899 77.6441 57.011C77.7955 57.122 77.9468 57.2582 78.0982 57.4197C78.2495 57.5811 78.3252 57.7526 78.3252 57.9343C78.3252 58.1159 78.1587 58.6406 77.8257 59.5084C77.4927 60.3661 77.3262 61.0573 77.3262 61.5821Z" fill="white"/>
</svg>
